<svg xmlns="http://www.w3.org/2000/svg" xmlns:xlink="http://www.w3.org/1999/xlink" width="500" zoomAndPan="magnify" viewBox="0 0 375 374.999991" height="500" preserveAspectRatio="xMidYMid meet" version="1.2"><defs><clipPath id="f50a79d0e9"><path d="M 135.613281 252.238281 L 373.96875 252.238281 L 373.96875 331.589844 L 135.613281 331.589844 Z M 135.613281 252.238281 "/></clipPath><clipPath id="baaf0fec98"><path d="M 149 5 L 280 5 L 280 252 L 149 252 Z M 149 5 "/></clipPath><clipPath id="9ab68cb18c"><path d="M 189.101562 5.332031 L 308.738281 211.488281 L 238.910156 252.007812 L 119.273438 45.851562 Z M 189.101562 5.332031 "/></clipPath><clipPath id="13574a5c69"><path d="M 120.46875 45.160156 L 240.105469 251.316406 L 309.933594 210.792969 L 190.296875 4.636719 Z M 120.46875 45.160156 "/></clipPath><clipPath id="66719fd9b9"><path d="M 0 152 L 188 152 L 188 341 L 0 341 Z M 0 152 "/></clipPath><clipPath id="4c413fcad7"><path d="M 0.015625 330.269531 L 118.234375 123.292969 L 188.335938 163.335938 L 70.121094 370.308594 Z M 0.015625 330.269531 "/></clipPath><clipPath id="2c26e95b6d"><path d="M 68.921875 369.625 L 187.136719 162.648438 L 117.03125 122.609375 L -1.183594 329.582031 Z M 68.921875 369.625 "/></clipPath></defs><g id="b5d9246fcf"><g clip-rule="nonzero" clip-path="url(#f50a79d0e9)"><path style=" stroke:none;fill-rule:nonzero;fill:#171717;fill-opacity:1;" d="M 373.949219 331.589844 L 214.644531 331.589844 C 171.007812 331.589844 135.632812 296.214844 135.632812 252.578125 L 294.9375 252.578125 C 338.574219 252.578125 373.949219 287.953125 373.949219 331.589844 Z M 373.949219 331.589844 "/></g><g clip-rule="nonzero" clip-path="url(#baaf0fec98)"><g clip-rule="nonzero" clip-path="url(#9ab68cb18c)"><g clip-rule="nonzero" clip-path="url(#13574a5c69)"><path style=" stroke:none;fill-rule:nonzero;fill:#171717;fill-opacity:1;" d="M 240.09375 251.296875 L 160.351562 113.882812 L 160.136719 113.515625 C 138.234375 75.773438 151.074219 27.421875 188.816406 5.519531 L 228.691406 74.226562 L 268.5625 142.933594 L 268.777344 143.304688 C 290.675781 181.042969 277.835938 229.394531 240.09375 251.296875 Z M 240.09375 251.296875 "/></g></g></g><g clip-rule="nonzero" clip-path="url(#66719fd9b9)"><g clip-rule="nonzero" clip-path="url(#4c413fcad7)"><g clip-rule="nonzero" clip-path="url(#2c26e95b6d)"><path style=" stroke:none;fill-rule:nonzero;fill:#171717;fill-opacity:1;" d="M 187.128906 162.667969 L 147.726562 231.648438 L 108.332031 300.625 L 108.117188 300.996094 C 86.476562 338.890625 38.214844 352.0625 0.320312 330.417969 L 39.71875 261.441406 L 79.121094 192.460938 L 79.332031 192.089844 C 100.972656 154.199219 149.234375 141.027344 187.128906 162.667969 Z M 187.128906 162.667969 "/></g></g></g></g></svg>