<svg xmlns="http://www.w3.org/2000/svg" xmlns:xlink="http://www.w3.org/1999/xlink" width="500" zoomAndPan="magnify" viewBox="0 0 375 374.999991" height="500" preserveAspectRatio="xMidYMid meet" version="1.0"><defs><clipPath id="9c6b81c0a4"><path d="M 156.238281 226.503906 L 299.84375 226.503906 L 299.84375 274.3125 L 156.238281 274.3125 Z M 156.238281 226.503906 " clip-rule="nonzero"/></clipPath><clipPath id="1616b489d5"><path d="M 164 77 L 244 77 L 244 226 L 164 226 Z M 164 77 " clip-rule="nonzero"/></clipPath><clipPath id="e51183a5da"><path d="M 188.464844 77.746094 L 260.542969 201.953125 L 218.472656 226.367188 L 146.394531 102.160156 Z M 188.464844 77.746094 " clip-rule="nonzero"/></clipPath><clipPath id="96209e4c0b"><path d="M 147.113281 101.742188 L 219.195312 225.949219 L 261.265625 201.535156 L 189.183594 77.328125 Z M 147.113281 101.742188 " clip-rule="nonzero"/></clipPath><clipPath id="f72778feb7"><path d="M 74 165 L 188 165 L 188 280 L 74 280 Z M 74 165 " clip-rule="nonzero"/></clipPath><clipPath id="60765f0b22"><path d="M 74.542969 273.515625 L 145.765625 148.816406 L 188.003906 172.941406 L 116.78125 297.640625 Z M 74.542969 273.515625 " clip-rule="nonzero"/></clipPath><clipPath id="04d87cc514"><path d="M 116.058594 297.226562 L 187.28125 172.527344 L 145.042969 148.402344 L 73.820312 273.105469 Z M 116.058594 297.226562 " clip-rule="nonzero"/></clipPath></defs><rect x="-37.5" width="450" fill="#ffffff" y="-37.499999" height="449.999989" fill-opacity="1"/><rect x="-37.5" width="450" fill="#09090b" y="-37.499999" height="449.999989" fill-opacity="1"/><g clip-path="url(#9c6b81c0a4)"><path fill="#ffffff" d="M 300.449219 274.3125 L 204.058594 274.3125 C 177.65625 274.3125 156.25 252.910156 156.25 226.503906 L 252.640625 226.503906 C 279.042969 226.503906 300.449219 247.910156 300.449219 274.3125 Z M 300.449219 274.3125 " fill-opacity="1" fill-rule="nonzero"/></g><g clip-path="url(#1616b489d5)"><g clip-path="url(#e51183a5da)"><g clip-path="url(#96209e4c0b)"><path fill="#ffffff" d="M 219.496094 226.46875 L 195.371094 184.898438 L 171.246094 143.324219 L 171.117188 143.101562 C 157.863281 120.265625 165.632812 91.007812 188.46875 77.757812 L 212.597656 119.328125 L 236.722656 160.902344 L 236.851562 161.125 C 250.101562 183.960938 242.332031 213.21875 219.496094 226.46875 Z M 219.496094 226.46875 " fill-opacity="1" fill-rule="nonzero"/></g></g></g><g clip-path="url(#f72778feb7)"><g clip-path="url(#60765f0b22)"><g clip-path="url(#04d87cc514)"><path fill="#ffffff" d="M 187.582031 172.003906 L 139.902344 255.480469 L 139.773438 255.703125 C 126.679688 278.632812 97.476562 286.601562 74.550781 273.507812 L 98.390625 231.769531 L 122.226562 190.03125 L 122.355469 189.804688 C 135.453125 166.878906 164.652344 158.910156 187.582031 172.003906 Z M 187.582031 172.003906 " fill-opacity="1" fill-rule="nonzero"/></g></g></g></svg>